# xmcd
#
# Track frame offsets:
#	150
#	10623
#	20413
#	35880
#	49310
#	61834
#	74235
#	86162
#	95682
#	108309
#	117122
#	126706
#	135164
#	142132
#	152141
#	165481
#	173119
#	181313
#	189143
#	201590
#	211600
#	223181
#
# Disc length: 3194 seconds
#
# Revision: 1
# Processed by: cddbd v1.5.2PL0 Copyright (c) Steve Scherf et al.
# Submitted via: audiograbber 1.83.01
#
DISCID=480c7816
DTITLE=jack scott - crazy heart cd2
DYEAR=2011
DGENRE=Country
TTITLE0=your cheatin' heart
TTITLE1=i could never be ashamed of you
TTITLE2=cold cold heart
TTITLE3=you win again
TTITLE4=half as much
TTITLE5=no one will ever know
TTITLE6=i can't help it
TTITLE7=i'm dreaming of you
TTITLE8=baby she's gone
TTITLE9=two timin' woman
TTITLE10=am i the one
TTITLE11=i'm satisfied with you 
TTITLE12=my king
TTITLE13=i'ts my way of loving you
TTITLE14=so used to loving you
TTITLE15=cruel world
TTITLE16=good deal lucille
TTITLE17=window shopping
TTITLE18=when the saints go marching in
TTITLE19=swing low sweet chariot
TTITLE20=crazy heart
TTITLE21=take these chains from my heart
EXTD=
EXTT0=
EXTT1=
EXTT2=
EXTT3=
EXTT4=
EXTT5=
EXTT6=
EXTT7=
EXTT8=
EXTT9=
EXTT10=
EXTT11=
EXTT12=
EXTT13=
EXTT14=
EXTT15=
EXTT16=
EXTT17=
EXTT18=
EXTT19=
EXTT20=
EXTT21=
PLAYORDER=
